solid OpenSCAD_Model
  facet normal -1 0 0
    outer loop
      vertex -131 64 0
      vertex -131 -62 10
      vertex -131 64 10
    endloop
  endfacet
  facet normal -1 0 0
    outer loop
      vertex -131 -64 0
      vertex -131 -62 10
      vertex -131 64 0
    endloop
  endfacet
  facet normal -1 0 0
    outer loop
      vertex -131 -64 50
      vertex -131 -62 10
      vertex -131 -64 0
    endloop
  endfacet
  facet normal -1 0 0
    outer loop
      vertex -131 -62 10
      vertex -131 -64 50
      vertex -131 -62 50
    endloop
  endfacet
  facet normal 0 0 1
    outer loop
      vertex -88.1 -56 1
      vertex -81.6012 -48.9615 1
      vertex -88.1 -3.5 1
    endloop
  endfacet
  facet normal 0 0 1
    outer loop
      vertex -81.6012 -48.9615 1
      vertex -88.1 -56 1
      vertex -85.1 -56 1
    endloop
  endfacet
  facet normal -0 0 1
    outer loop
      vertex -88.1 47.46 1
      vertex -85.1 3.5 1
      vertex -85.1 47.46 1
    endloop
  endfacet
  facet normal 0 0 1
    outer loop
      vertex -85.1 3.5 1
      vertex -88.1 47.46 1
      vertex -88.1 3.5 1
    endloop
  endfacet
  facet normal 0 0 1
    outer loop
      vertex -85.1 3.5 1
      vertex -81.6012 48.9615 1
      vertex -85.1 47.46 1
    endloop
  endfacet
  facet normal 0 0 1
    outer loop
      vertex -81.6012 48.9615 1
      vertex -85.1 3.5 1
      vertex -81.6012 -48.9615 1
    endloop
  endfacet
  facet normal -0 0 1
    outer loop
      vertex -85.1 -3.5 1
      vertex -81.6012 -48.9615 1
      vertex -85.1 3.5 1
    endloop
  endfacet
  facet normal -0 0 1
    outer loop
      vertex -88.1 -3.5 1
      vertex -81.6012 -48.9615 1
      vertex -85.1 -3.5 1
    endloop
  endfacet
  facet normal 0 0 1
    outer loop
      vertex -81.6012 -48.9615 1
      vertex -85.1 -56 1
      vertex -82.1 -59.84 1
    endloop
  endfacet
  facet normal 0 0 1
    outer loop
      vertex -82.1 -59.84 1
      vertex -85.1 -56 1
      vertex -85.1 -59.84 1
    endloop
  endfacet
  facet normal -0 0 1
    outer loop
      vertex 81.6012 48.9615 1
      vertex 85.1 47.46 1
      vertex 85.1 51.66 1
    endloop
  endfacet
  facet normal 0 0 1
    outer loop
      vertex 85.1 47.46 1
      vertex 81.6012 48.9615 1
      vertex 85.1 3.5 1
    endloop
  endfacet
  facet normal 0 0 1
    outer loop
      vertex 85.1 3.5 1
      vertex 81.6012 48.9615 1
      vertex 85.1 -3.5 1
    endloop
  endfacet
  facet normal 0 0 1
    outer loop
      vertex 85.1 -3.5 1
      vertex 81.6012 -48.9615 1
      vertex 85.1 -56 1
    endloop
  endfacet
  facet normal 0 0 1
    outer loop
      vertex 81.6012 48.9615 1
      vertex 85.1 51.66 1
      vertex 82.1 51.66 1
    endloop
  endfacet
  facet normal 0 0 1
    outer loop
      vertex 85.1 -3.5 1
      vertex 81.6012 48.9615 1
      vertex 81.6012 -48.9615 1
    endloop
  endfacet
  facet normal -0 0 1
    outer loop
      vertex 85.1 -3.5 1
      vertex 88.1 -56 1
      vertex 88.1 -3.5 1
    endloop
  endfacet
  facet normal 0 0 1
    outer loop
      vertex 88.1 -56 1
      vertex 85.1 -3.5 1
      vertex 85.1 -56 1
    endloop
  endfacet
  facet normal -0 0 1
    outer loop
      vertex 85.1 47.46 1
      vertex 88.1 3.5 1
      vertex 88.1 47.46 1
    endloop
  endfacet
  facet normal 0 0 1
    outer loop
      vertex 88.1 3.5 1
      vertex 85.1 47.46 1
      vertex 85.1 3.5 1
    endloop
  endfacet
  facet normal 0 0 1
    outer loop
      vertex 88.1 47.46 1
      vertex 129 62 1
      vertex 88.1 54.46 1
    endloop
  endfacet
  facet normal 0 0 1
    outer loop
      vertex 129 62 1
      vertex 82.1 54.46 1
      vertex 88.1 54.46 1
    endloop
  endfacet
  facet normal 0 0 1
    outer loop
      vertex 81.6012 48.9615 1
      vertex 82.1 51.66 1
      vertex 82.1 54.46 1
    endloop
  endfacet
  facet normal 0 0 1
    outer loop
      vertex 85.1 -56 1
      vertex 82.1 -59.84 1
      vertex 85.1 -59.84 1
    endloop
  endfacet
  facet normal 0 -0 1
    outer loop
      vertex 82.1 -59.84 1
      vertex 85.1 -56 1
      vertex 81.6012 -48.9615 1
    endloop
  endfacet
  facet normal 0 0 1
    outer loop
      vertex 82.1 54.46 1
      vertex -81.6012 48.9615 1
      vertex 81.6012 48.9615 1
    endloop
  endfacet
  facet normal 0 0 1
    outer loop
      vertex -82.1 54.46 1
      vertex 82.1 54.46 1
      vertex 129 62 1
    endloop
  endfacet
  facet normal -0 0 1
    outer loop
      vertex -82.1 51.66 1
      vertex -81.6012 48.9615 1
      vertex -82.1 54.46 1
    endloop
  endfacet
  facet normal 0 0 1
    outer loop
      vertex 82.1 54.46 1
      vertex -82.1 54.46 1
      vertex -81.6012 48.9615 1
    endloop
  endfacet
  facet normal -0 0 1
    outer loop
      vertex -129 62 1
      vertex -82.1 54.46 1
      vertex 129 62 1
    endloop
  endfacet
  facet normal 0 0 1
    outer loop
      vertex -129 62 1
      vertex -88.1 47.46 1
      vertex -88.1 54.46 1
    endloop
  endfacet
  facet normal 0 0 1
    outer loop
      vertex -88.1 47.46 1
      vertex -129 62 1
      vertex -88.1 3.5 1
    endloop
  endfacet
  facet normal 0 0 1
    outer loop
      vertex -88.1 3.5 1
      vertex -129 62 1
      vertex -88.1 -3.5 1
    endloop
  endfacet
  facet normal 0 0 1
    outer loop
      vertex -88.1 -3.5 1
      vertex -129 -62 1
      vertex -88.1 -56 1
    endloop
  endfacet
  facet normal 0 0 1
    outer loop
      vertex -82.1 54.46 1
      vertex -129 62 1
      vertex -88.1 54.46 1
    endloop
  endfacet
  facet normal 0 0 1
    outer loop
      vertex -88.1 -3.5 1
      vertex -129 62 1
      vertex -129 -62 1
    endloop
  endfacet
  facet normal 0 0 1
    outer loop
      vertex -88.1 -56 1
      vertex -129 -62 1
      vertex -88.1 -62 1
    endloop
  endfacet
  facet normal 0 0 1
    outer loop
      vertex 88.1 3.5 1
      vertex 129 62 1
      vertex 88.1 47.46 1
    endloop
  endfacet
  facet normal 0 0 1
    outer loop
      vertex 129 62 1
      vertex 88.1 3.5 1
      vertex 129 -62 1
    endloop
  endfacet
  facet normal -0 0 1
    outer loop
      vertex 88.1 -3.5 1
      vertex 129 -62 1
      vertex 88.1 3.5 1
    endloop
  endfacet
  facet normal -0 0 1
    outer loop
      vertex 88.1 -56 1
      vertex 129 -62 1
      vertex 88.1 -3.5 1
    endloop
  endfacet
  facet normal 0 0 1
    outer loop
      vertex 129 -62 1
      vertex 88.1 -56 1
      vertex 88.1 -62 1
    endloop
  endfacet
  facet normal -0 0 1
    outer loop
      vertex -81.6012 -48.9615 1
      vertex 82.1 -59.84 1
      vertex 81.6012 -48.9615 1
    endloop
  endfacet
  facet normal 0 0 1
    outer loop
      vertex -82.1 -59.84 1
      vertex 82.1 -59.84 1
      vertex -81.6012 -48.9615 1
    endloop
  endfacet
  facet normal -0 0 1
    outer loop
      vertex -85.1 51.66 1
      vertex -81.6012 48.9615 1
      vertex -82.1 51.66 1
    endloop
  endfacet
  facet normal 0 0 1
    outer loop
      vertex -85.1 47.46 1
      vertex -81.6012 48.9615 1
      vertex -85.1 51.66 1
    endloop
  endfacet
  facet normal 0 0 1
    outer loop
      vertex 82.1 -59.84 1
      vertex -82.1 -59.84 1
      vertex 82.1 -62 1
    endloop
  endfacet
  facet normal 0 0 1
    outer loop
      vertex 82.1 -62 1
      vertex -82.1 -59.84 1
      vertex -82.1 -62 1
    endloop
  endfacet
  facet normal 1 0 0
    outer loop
      vertex 131 -62 50
      vertex 131 -64 50
      vertex 131 -62 10
    endloop
  endfacet
  facet normal 1 -0 0
    outer loop
      vertex 131 -62 10
      vertex 131 64 0
      vertex 131 64 10
    endloop
  endfacet
  facet normal 1 0 0
    outer loop
      vertex 131 -62 10
      vertex 131 -64 0
      vertex 131 64 0
    endloop
  endfacet
  facet normal 1 0 0
    outer loop
      vertex 131 -64 0
      vertex 131 -62 10
      vertex 131 -64 50
    endloop
  endfacet
  facet normal 0 1 -0
    outer loop
      vertex 131 64 0
      vertex -131 64 10
      vertex 131 64 10
    endloop
  endfacet
  facet normal 0 1 0
    outer loop
      vertex -131 64 10
      vertex 131 64 0
      vertex -131 64 0
    endloop
  endfacet
  facet normal 0 0 -1
    outer loop
      vertex 131 -64 0
      vertex 82.8228 -50.4273 0
      vertex 131 64 0
    endloop
  endfacet
  facet normal 0 0 -1
    outer loop
      vertex 131 -64 0
      vertex -82.8228 -50.4273 0
      vertex 82.8228 -50.4273 0
    endloop
  endfacet
  facet normal -0 0 -1
    outer loop
      vertex -82.8228 -50.4273 0
      vertex -131 -64 0
      vertex -82.8228 50.4273 0
    endloop
  endfacet
  facet normal 0 0 -1
    outer loop
      vertex -131 -64 0
      vertex -82.8228 -50.4273 0
      vertex 131 -64 0
    endloop
  endfacet
  facet normal 0 0 -1
    outer loop
      vertex 82.8228 50.4273 0
      vertex 131 64 0
      vertex 82.8228 -50.4273 0
    endloop
  endfacet
  facet normal 0 0 -1
    outer loop
      vertex -82.8228 50.4273 0
      vertex 131 64 0
      vertex 82.8228 50.4273 0
    endloop
  endfacet
  facet normal 0 0 -1
    outer loop
      vertex -82.8228 50.4273 0
      vertex -131 64 0
      vertex 131 64 0
    endloop
  endfacet
  facet normal 0 0 -1
    outer loop
      vertex -131 64 0
      vertex -82.8228 50.4273 0
      vertex -131 -64 0
    endloop
  endfacet
  facet normal 0 -1 0
    outer loop
      vertex -131 -64 0
      vertex 131 -64 50
      vertex -131 -64 50
    endloop
  endfacet
  facet normal 0 -1 -0
    outer loop
      vertex 131 -64 50
      vertex -131 -64 0
      vertex 131 -64 0
    endloop
  endfacet
  facet normal 0 0.563546 -0.826085
    outer loop
      vertex 82.8228 -50.4273 0
      vertex -81.6012 -48.9615 1
      vertex 81.6012 -48.9615 1
    endloop
  endfacet
  facet normal 0 0.563546 -0.826085
    outer loop
      vertex -81.6012 -48.9615 1
      vertex 82.8228 -50.4273 0
      vertex -82.8228 -50.4273 0
    endloop
  endfacet
  facet normal 0.633444 0 -0.773788
    outer loop
      vertex -82.8228 -50.4273 0
      vertex -81.6012 48.9615 1
      vertex -81.6012 -48.9615 1
    endloop
  endfacet
  facet normal 0.633444 0 -0.773788
    outer loop
      vertex -81.6012 48.9615 1
      vertex -82.8228 -50.4273 0
      vertex -82.8228 50.4273 0
    endloop
  endfacet
  facet normal -0.633444 0 -0.773788
    outer loop
      vertex 81.6012 -48.9615 1
      vertex 82.8228 50.4273 0
      vertex 82.8228 -50.4273 0
    endloop
  endfacet
  facet normal -0.633444 0 -0.773788
    outer loop
      vertex 82.8228 50.4273 0
      vertex 81.6012 -48.9615 1
      vertex 81.6012 48.9615 1
    endloop
  endfacet
  facet normal 0 -0.563546 -0.826085
    outer loop
      vertex -81.6012 48.9615 1
      vertex 82.8228 50.4273 0
      vertex 81.6012 48.9615 1
    endloop
  endfacet
  facet normal -0 -0.563546 -0.826085
    outer loop
      vertex 82.8228 50.4273 0
      vertex -81.6012 48.9615 1
      vertex -82.8228 50.4273 0
    endloop
  endfacet
  facet normal -1 0 0
    outer loop
      vertex 82.1 51.66 1
      vertex 82.1 54.46 3.2
      vertex 82.1 54.46 1
    endloop
  endfacet
  facet normal -1 -0 0
    outer loop
      vertex 82.1 54.46 3.2
      vertex 82.1 51.66 1
      vertex 82.1 51.66 3.2
    endloop
  endfacet
  facet normal 0 0 1
    outer loop
      vertex 88.1 54.46 3.2
      vertex 85.1 51.66 3.2
      vertex 88.1 47.46 3.2
    endloop
  endfacet
  facet normal -0 0 1
    outer loop
      vertex 82.1 54.46 3.2
      vertex 85.1 51.66 3.2
      vertex 88.1 54.46 3.2
    endloop
  endfacet
  facet normal 0 0 1
    outer loop
      vertex 85.1 51.66 3.2
      vertex 82.1 54.46 3.2
      vertex 82.1 51.66 3.2
    endloop
  endfacet
  facet normal 0 0 1
    outer loop
      vertex 88.1 47.46 3.2
      vertex 85.1 51.66 3.2
      vertex 85.1 47.46 3.2
    endloop
  endfacet
  facet normal 1 -0 0
    outer loop
      vertex 88.1 47.46 3.2
      vertex 88.1 54.46 1
      vertex 88.1 54.46 3.2
    endloop
  endfacet
  facet normal 1 0 0
    outer loop
      vertex 88.1 54.46 1
      vertex 88.1 47.46 3.2
      vertex 88.1 47.46 1
    endloop
  endfacet
  facet normal 0 1 -0
    outer loop
      vertex 88.1 54.46 1
      vertex 82.1 54.46 3.2
      vertex 88.1 54.46 3.2
    endloop
  endfacet
  facet normal 0 1 0
    outer loop
      vertex 82.1 54.46 3.2
      vertex 88.1 54.46 1
      vertex 82.1 54.46 1
    endloop
  endfacet
  facet normal 0 -1 0
    outer loop
      vertex 85.1 47.46 1
      vertex 88.1 47.46 3.2
      vertex 85.1 47.46 3.2
    endloop
  endfacet
  facet normal 0 -1 -0
    outer loop
      vertex 88.1 47.46 3.2
      vertex 85.1 47.46 1
      vertex 88.1 47.46 1
    endloop
  endfacet
  facet normal -0 0 1
    outer loop
      vertex 85.1 3.5 3.2
      vertex 88.1 -3.5 3.2
      vertex 88.1 3.5 3.2
    endloop
  endfacet
  facet normal 0 0 1
    outer loop
      vertex 88.1 -3.5 3.2
      vertex 85.1 3.5 3.2
      vertex 85.1 -3.5 3.2
    endloop
  endfacet
  facet normal 1 -0 0
    outer loop
      vertex 88.1 -3.5 3.2
      vertex 88.1 3.5 1
      vertex 88.1 3.5 3.2
    endloop
  endfacet
  facet normal 1 0 0
    outer loop
      vertex 88.1 3.5 1
      vertex 88.1 -3.5 3.2
      vertex 88.1 -3.5 1
    endloop
  endfacet
  facet normal 0 1 -0
    outer loop
      vertex 88.1 3.5 1
      vertex 85.1 3.5 3.2
      vertex 88.1 3.5 3.2
    endloop
  endfacet
  facet normal 0 1 0
    outer loop
      vertex 85.1 3.5 3.2
      vertex 88.1 3.5 1
      vertex 85.1 3.5 1
    endloop
  endfacet
  facet normal 0 -1 0
    outer loop
      vertex 85.1 -3.5 1
      vertex 88.1 -3.5 3.2
      vertex 85.1 -3.5 3.2
    endloop
  endfacet
  facet normal 0 -1 -0
    outer loop
      vertex 88.1 -3.5 3.2
      vertex 85.1 -3.5 1
      vertex 88.1 -3.5 1
    endloop
  endfacet
  facet normal -1 0 0
    outer loop
      vertex 82.1 -62 1
      vertex 82.1 -59.84 3.2
      vertex 82.1 -59.84 1
    endloop
  endfacet
  facet normal -1 -0 0
    outer loop
      vertex 82.1 -59.84 3.2
      vertex 82.1 -62 1
      vertex 82.1 -62 3.2
    endloop
  endfacet
  facet normal 0 0 1
    outer loop
      vertex 85.1 -59.84 3.2
      vertex 88.1 -56 3.2
      vertex 85.1 -56 3.2
    endloop
  endfacet
  facet normal 0 0 1
    outer loop
      vertex 88.1 -56 3.2
      vertex 85.1 -59.84 3.2
      vertex 88.1 -62 3.2
    endloop
  endfacet
  facet normal 0 0 1
    outer loop
      vertex 82.1 -62 3.2
      vertex 85.1 -59.84 3.2
      vertex 82.1 -59.84 3.2
    endloop
  endfacet
  facet normal 0 0 1
    outer loop
      vertex 85.1 -59.84 3.2
      vertex 82.1 -62 3.2
      vertex 88.1 -62 3.2
    endloop
  endfacet
  facet normal 1 -0 0
    outer loop
      vertex 88.1 -62 3.2
      vertex 88.1 -56 1
      vertex 88.1 -56 3.2
    endloop
  endfacet
  facet normal 1 0 0
    outer loop
      vertex 88.1 -56 1
      vertex 88.1 -62 3.2
      vertex 88.1 -62 1
    endloop
  endfacet
  facet normal 0 1 -0
    outer loop
      vertex 88.1 -56 1
      vertex 85.1 -56 3.2
      vertex 88.1 -56 3.2
    endloop
  endfacet
  facet normal 0 1 0
    outer loop
      vertex 85.1 -56 3.2
      vertex 88.1 -56 1
      vertex 85.1 -56 1
    endloop
  endfacet
  facet normal -1 0 0
    outer loop
      vertex -88.1 47.46 1
      vertex -88.1 54.46 3.2
      vertex -88.1 54.46 1
    endloop
  endfacet
  facet normal -1 -0 0
    outer loop
      vertex -88.1 54.46 3.2
      vertex -88.1 47.46 1
      vertex -88.1 47.46 3.2
    endloop
  endfacet
  facet normal 0 0 1
    outer loop
      vertex -82.1 54.46 3.2
      vertex -85.1 51.66 3.2
      vertex -82.1 51.66 3.2
    endloop
  endfacet
  facet normal -0 0 1
    outer loop
      vertex -88.1 54.46 3.2
      vertex -85.1 51.66 3.2
      vertex -82.1 54.46 3.2
    endloop
  endfacet
  facet normal 0 0 1
    outer loop
      vertex -88.1 47.46 3.2
      vertex -85.1 51.66 3.2
      vertex -88.1 54.46 3.2
    endloop
  endfacet
  facet normal 0 0 1
    outer loop
      vertex -85.1 51.66 3.2
      vertex -88.1 47.46 3.2
      vertex -85.1 47.46 3.2
    endloop
  endfacet
  facet normal 1 -0 0
    outer loop
      vertex -82.1 51.66 3.2
      vertex -82.1 54.46 1
      vertex -82.1 54.46 3.2
    endloop
  endfacet
  facet normal 1 0 0
    outer loop
      vertex -82.1 54.46 1
      vertex -82.1 51.66 3.2
      vertex -82.1 51.66 1
    endloop
  endfacet
  facet normal 0 -1 0
    outer loop
      vertex -88.1 47.46 1
      vertex -85.1 47.46 3.2
      vertex -88.1 47.46 3.2
    endloop
  endfacet
  facet normal 0 -1 -0
    outer loop
      vertex -85.1 47.46 3.2
      vertex -88.1 47.46 1
      vertex -85.1 47.46 1
    endloop
  endfacet
  facet normal 0 1 -0
    outer loop
      vertex -82.1 54.46 1
      vertex -88.1 54.46 3.2
      vertex -82.1 54.46 3.2
    endloop
  endfacet
  facet normal 0 1 0
    outer loop
      vertex -88.1 54.46 3.2
      vertex -82.1 54.46 1
      vertex -88.1 54.46 1
    endloop
  endfacet
  facet normal -1 0 0
    outer loop
      vertex -88.1 -3.5 1
      vertex -88.1 3.5 3.2
      vertex -88.1 3.5 1
    endloop
  endfacet
  facet normal -1 -0 0
    outer loop
      vertex -88.1 3.5 3.2
      vertex -88.1 -3.5 1
      vertex -88.1 -3.5 3.2
    endloop
  endfacet
  facet normal -0 0 1
    outer loop
      vertex -88.1 3.5 3.2
      vertex -85.1 -3.5 3.2
      vertex -85.1 3.5 3.2
    endloop
  endfacet
  facet normal 0 0 1
    outer loop
      vertex -85.1 -3.5 3.2
      vertex -88.1 3.5 3.2
      vertex -88.1 -3.5 3.2
    endloop
  endfacet
  facet normal 0 -1 0
    outer loop
      vertex -88.1 -3.5 1
      vertex -85.1 -3.5 3.2
      vertex -88.1 -3.5 3.2
    endloop
  endfacet
  facet normal 0 -1 -0
    outer loop
      vertex -85.1 -3.5 3.2
      vertex -88.1 -3.5 1
      vertex -85.1 -3.5 1
    endloop
  endfacet
  facet normal 0 1 -0
    outer loop
      vertex -85.1 3.5 1
      vertex -88.1 3.5 3.2
      vertex -85.1 3.5 3.2
    endloop
  endfacet
  facet normal 0 1 0
    outer loop
      vertex -88.1 3.5 3.2
      vertex -85.1 3.5 1
      vertex -88.1 3.5 1
    endloop
  endfacet
  facet normal -1 0 0
    outer loop
      vertex -88.1 -62 1
      vertex -88.1 -56 3.2
      vertex -88.1 -56 1
    endloop
  endfacet
  facet normal -1 -0 0
    outer loop
      vertex -88.1 -56 3.2
      vertex -88.1 -62 1
      vertex -88.1 -62 3.2
    endloop
  endfacet
  facet normal 0 0 1
    outer loop
      vertex -85.1 -56 3.2
      vertex -88.1 -56 3.2
      vertex -85.1 -59.84 3.2
    endloop
  endfacet
  facet normal -0 0 1
    outer loop
      vertex -85.1 -59.84 3.2
      vertex -82.1 -62 3.2
      vertex -82.1 -59.84 3.2
    endloop
  endfacet
  facet normal 0 0 1
    outer loop
      vertex -85.1 -59.84 3.2
      vertex -88.1 -62 3.2
      vertex -82.1 -62 3.2
    endloop
  endfacet
  facet normal 0 0 1
    outer loop
      vertex -88.1 -62 3.2
      vertex -85.1 -59.84 3.2
      vertex -88.1 -56 3.2
    endloop
  endfacet
  facet normal 1 -0 0
    outer loop
      vertex -82.1 -62 3.2
      vertex -82.1 -59.84 1
      vertex -82.1 -59.84 3.2
    endloop
  endfacet
  facet normal 1 0 0
    outer loop
      vertex -82.1 -59.84 1
      vertex -82.1 -62 3.2
      vertex -82.1 -62 1
    endloop
  endfacet
  facet normal 0 1 -0
    outer loop
      vertex -85.1 -56 1
      vertex -88.1 -56 3.2
      vertex -85.1 -56 3.2
    endloop
  endfacet
  facet normal 0 1 0
    outer loop
      vertex -88.1 -56 3.2
      vertex -85.1 -56 1
      vertex -88.1 -56 1
    endloop
  endfacet
  facet normal 1 -0 0
    outer loop
      vertex -85.1 -59.84 3.2
      vertex -85.1 -56 1
      vertex -85.1 -56 3.2
    endloop
  endfacet
  facet normal 1 0 0
    outer loop
      vertex -85.1 -56 1
      vertex -85.1 -59.84 3.2
      vertex -85.1 -59.84 1
    endloop
  endfacet
  facet normal 1 -0 0
    outer loop
      vertex -85.1 -3.5 3.2
      vertex -85.1 3.5 1
      vertex -85.1 3.5 3.2
    endloop
  endfacet
  facet normal 1 0 0
    outer loop
      vertex -85.1 3.5 1
      vertex -85.1 -3.5 3.2
      vertex -85.1 -3.5 1
    endloop
  endfacet
  facet normal 1 -0 0
    outer loop
      vertex -85.1 47.46 3.2
      vertex -85.1 51.66 1
      vertex -85.1 51.66 3.2
    endloop
  endfacet
  facet normal 1 0 0
    outer loop
      vertex -85.1 51.66 1
      vertex -85.1 47.46 3.2
      vertex -85.1 47.46 1
    endloop
  endfacet
  facet normal -1 0 0
    outer loop
      vertex 85.1 -59.84 1
      vertex 85.1 -56 3.2
      vertex 85.1 -56 1
    endloop
  endfacet
  facet normal -1 -0 0
    outer loop
      vertex 85.1 -56 3.2
      vertex 85.1 -59.84 1
      vertex 85.1 -59.84 3.2
    endloop
  endfacet
  facet normal -1 0 0
    outer loop
      vertex 85.1 -3.5 1
      vertex 85.1 3.5 3.2
      vertex 85.1 3.5 1
    endloop
  endfacet
  facet normal -1 -0 0
    outer loop
      vertex 85.1 3.5 3.2
      vertex 85.1 -3.5 1
      vertex 85.1 -3.5 3.2
    endloop
  endfacet
  facet normal -1 0 0
    outer loop
      vertex 85.1 47.46 1
      vertex 85.1 51.66 3.2
      vertex 85.1 51.66 1
    endloop
  endfacet
  facet normal -1 -0 0
    outer loop
      vertex 85.1 51.66 3.2
      vertex 85.1 47.46 1
      vertex 85.1 47.46 3.2
    endloop
  endfacet
  facet normal 0 1 -0
    outer loop
      vertex -82.1 -59.84 1
      vertex -85.1 -59.84 3.2
      vertex -82.1 -59.84 3.2
    endloop
  endfacet
  facet normal 0 1 0
    outer loop
      vertex -85.1 -59.84 3.2
      vertex -82.1 -59.84 1
      vertex -85.1 -59.84 1
    endloop
  endfacet
  facet normal 0 1 -0
    outer loop
      vertex 85.1 -59.84 1
      vertex 82.1 -59.84 3.2
      vertex 85.1 -59.84 3.2
    endloop
  endfacet
  facet normal 0 1 0
    outer loop
      vertex 82.1 -59.84 3.2
      vertex 85.1 -59.84 1
      vertex 82.1 -59.84 1
    endloop
  endfacet
  facet normal 0 -1 0
    outer loop
      vertex -85.1 51.66 1
      vertex -82.1 51.66 3.2
      vertex -85.1 51.66 3.2
    endloop
  endfacet
  facet normal 0 -1 -0
    outer loop
      vertex -82.1 51.66 3.2
      vertex -85.1 51.66 1
      vertex -82.1 51.66 1
    endloop
  endfacet
  facet normal 0 -1 0
    outer loop
      vertex 82.1 51.66 1
      vertex 85.1 51.66 3.2
      vertex 82.1 51.66 3.2
    endloop
  endfacet
  facet normal 0 -1 -0
    outer loop
      vertex 85.1 51.66 3.2
      vertex 82.1 51.66 1
      vertex 85.1 51.66 1
    endloop
  endfacet
  facet normal -0 0 1
    outer loop
      vertex -131 -62 50
      vertex 131 -64 50
      vertex 131 -62 50
    endloop
  endfacet
  facet normal 0 0 1
    outer loop
      vertex 131 -64 50
      vertex -131 -62 50
      vertex -131 -64 50
    endloop
  endfacet
  facet normal 0 1 -0
    outer loop
      vertex 82.1 -62 1
      vertex -82.1 -62 3.2
      vertex 82.1 -62 3.2
    endloop
  endfacet
  facet normal 0 1 0
    outer loop
      vertex -82.1 -62 3.2
      vertex 82.1 -62 1
      vertex -82.1 -62 1
    endloop
  endfacet
  facet normal 0 1 0
    outer loop
      vertex 131 -62 50
      vertex 82.1 -62 3.2
      vertex -131 -62 50
    endloop
  endfacet
  facet normal 0 1 -0
    outer loop
      vertex 129 -62 1
      vertex 88.1 -62 3.2
      vertex 129 -62 10
    endloop
  endfacet
  facet normal 0 1 0
    outer loop
      vertex 88.1 -62 3.2
      vertex 129 -62 1
      vertex 88.1 -62 1
    endloop
  endfacet
  facet normal 0 1 0
    outer loop
      vertex 129 -62 10
      vertex 131 -62 50
      vertex 131 -62 10
    endloop
  endfacet
  facet normal 0 1 0
    outer loop
      vertex 88.1 -62 3.2
      vertex 131 -62 50
      vertex 129 -62 10
    endloop
  endfacet
  facet normal 0 1 0
    outer loop
      vertex 82.1 -62 3.2
      vertex 131 -62 50
      vertex 88.1 -62 3.2
    endloop
  endfacet
  facet normal 0 1 0
    outer loop
      vertex -131 -62 50
      vertex -129 -62 10
      vertex -131 -62 10
    endloop
  endfacet
  facet normal 0 1 -0
    outer loop
      vertex -82.1 -62 3.2
      vertex -131 -62 50
      vertex 82.1 -62 3.2
    endloop
  endfacet
  facet normal 0 1 -0
    outer loop
      vertex -88.1 -62 3.2
      vertex -131 -62 50
      vertex -82.1 -62 3.2
    endloop
  endfacet
  facet normal 0 1 0
    outer loop
      vertex -131 -62 50
      vertex -88.1 -62 3.2
      vertex -129 -62 10
    endloop
  endfacet
  facet normal 0 1 0
    outer loop
      vertex -129 -62 1
      vertex -88.1 -62 3.2
      vertex -88.1 -62 1
    endloop
  endfacet
  facet normal 0 1 0
    outer loop
      vertex -88.1 -62 3.2
      vertex -129 -62 1
      vertex -129 -62 10
    endloop
  endfacet
  facet normal -1 0 0
    outer loop
      vertex 129 -62 1
      vertex 129 62 10
      vertex 129 62 1
    endloop
  endfacet
  facet normal -1 -0 0
    outer loop
      vertex 129 62 10
      vertex 129 -62 1
      vertex 129 -62 10
    endloop
  endfacet
  facet normal 0 0 1
    outer loop
      vertex 131 64 10
      vertex 129 62 10
      vertex 131 -62 10
    endloop
  endfacet
  facet normal 0 0 1
    outer loop
      vertex 131 64 10
      vertex -129 62 10
      vertex 129 62 10
    endloop
  endfacet
  facet normal -0 0 1
    outer loop
      vertex -131 64 10
      vertex -129 62 10
      vertex 131 64 10
    endloop
  endfacet
  facet normal 0 0 1
    outer loop
      vertex -131 -62 10
      vertex -129 62 10
      vertex -131 64 10
    endloop
  endfacet
  facet normal 0 0 1
    outer loop
      vertex -129 62 10
      vertex -131 -62 10
      vertex -129 -62 10
    endloop
  endfacet
  facet normal 0 0 1
    outer loop
      vertex 131 -62 10
      vertex 129 62 10
      vertex 129 -62 10
    endloop
  endfacet
  facet normal 1 -0 0
    outer loop
      vertex -129 -62 10
      vertex -129 62 1
      vertex -129 62 10
    endloop
  endfacet
  facet normal 1 0 0
    outer loop
      vertex -129 62 1
      vertex -129 -62 10
      vertex -129 -62 1
    endloop
  endfacet
  facet normal 0 -1 0
    outer loop
      vertex -129 62 1
      vertex 129 62 10
      vertex -129 62 10
    endloop
  endfacet
  facet normal 0 -1 -0
    outer loop
      vertex 129 62 10
      vertex -129 62 1
      vertex 129 62 1
    endloop
  endfacet
endsolid OpenSCAD_Model
